<svg width="80" height="80" viewBox="0 0 80 80" fill="none" xmlns="http://www.w3.org/2000/svg">
<g filter="url(#filter0_d_5081_327)">
<rect x="4" y="2" width="72" height="72" rx="36" fill="#31A0FE"/>
<path d="M40 43.7812C45.7472 43.7812 50.4062 39.1222 50.4062 33.375C50.4062 27.6278 45.7472 22.9688 40 22.9688C34.2528 22.9688 29.5938 27.6278 29.5938 33.375C29.5938 39.1222 34.2528 43.7812 40 43.7812Z" fill="#31A0FE"/>
<path fill-rule="evenodd" clip-rule="evenodd" d="M34.2188 42.625V51.7854C34.2188 52.2291 34.4731 52.6338 34.8732 52.8274C35.2733 53.0197 35.7496 52.9662 36.0965 52.6887C37.1857 51.8201 38.4957 50.7737 39.2901 50.1392C39.7133 49.8024 40.3133 49.8024 40.7354 50.1406C41.5239 50.7737 42.8201 51.8129 43.9012 52.68C44.2481 52.959 44.7244 53.0125 45.1257 52.8202C45.5257 52.628 45.7812 52.2233 45.7812 51.7782C45.7812 48.3903 45.7812 42.625 45.7812 42.625" fill="#31A0FE"/>
<path fill-rule="evenodd" clip-rule="evenodd" d="M33.0625 42.6227V42.625V51.7848C33.0625 52.674 33.5712 53.4833 34.3725 53.8695C35.1727 54.2546 36.1231 54.147 36.818 53.5932L40.0116 51.0437L43.1785 53.5828C43.8723 54.1389 44.8239 54.2476 45.6252 53.8626C46.4276 53.4787 46.9375 52.6682 46.9375 51.7779V42.625V42.6227C49.7449 40.5137 51.5625 37.1548 51.5625 33.375C51.5625 26.9937 46.3813 21.8125 40 21.8125C33.6187 21.8125 28.4375 26.9937 28.4375 33.375C28.4375 37.1548 30.2551 40.5137 33.0625 42.6227ZM44.625 43.9744C43.2086 44.5941 41.6442 44.9375 40 44.9375C38.3558 44.9375 36.7914 44.5941 35.375 43.9744V51.7848L38.5697 49.2353C39.4149 48.5612 40.6151 48.5623 41.458 49.2387L44.625 51.7779V43.9744ZM40 24.125C45.1048 24.125 49.25 28.2702 49.25 33.375C49.25 38.4798 45.1048 42.625 40 42.625C34.8952 42.625 30.75 38.4798 30.75 33.375C30.75 28.2702 34.8952 24.125 40 24.125ZM37.8008 28.365L37.3291 29.8149H35.804C34.8027 29.8149 33.9147 30.4601 33.6048 31.4128C33.2949 32.3656 33.6348 33.4097 34.4454 33.9982L35.6791 34.8955L35.2073 36.3454C34.8986 37.2982 35.2374 38.3422 36.0479 38.9308C36.8585 39.5193 37.9557 39.5193 38.7663 38.9308L40 38.0347L41.2337 38.9308C42.0443 39.5193 43.1415 39.5193 43.9521 38.9308C44.7626 38.3422 45.1014 37.2982 44.7927 36.3454L44.3209 34.8955L45.5546 33.9982C46.3652 33.4097 46.7051 32.3656 46.3952 31.4128C46.0853 30.4601 45.1973 29.8149 44.196 29.8149H42.6709L42.1992 28.365C41.8893 27.4122 41.0013 26.767 40 26.767C38.9987 26.767 38.1107 27.4122 37.8008 28.365ZM40 29.0795L40.7308 31.3284C40.8857 31.8048 41.3297 32.1274 41.8303 32.1274H44.196L42.2824 33.5184C41.8766 33.8121 41.7078 34.3347 41.8627 34.8111L42.5935 37.06L40.6799 35.6702C40.274 35.3753 39.726 35.3753 39.3201 35.6702L37.4065 37.06L38.1373 34.8111C38.2922 34.3347 38.1234 33.8121 37.7176 33.5184L35.804 32.1274H38.1697C38.6703 32.1274 39.1143 31.8048 39.2693 31.3284L40 29.0795Z" fill="white"/>
</g>
<defs>
<filter id="filter0_d_5081_327" x="0" y="0" width="80" height="80" filterUnits="userSpaceOnUse" color-interpolation-filters="sRGB">
<feFlood flood-opacity="0" result="BackgroundImageFix"/>
<feColorMatrix in="SourceAlpha" type="matrix" values="0 0 0 0 0 0 0 0 0 0 0 0 0 0 0 0 0 0 127 0" result="hardAlpha"/>
<feOffset dy="2"/>
<feGaussianBlur stdDeviation="2"/>
<feColorMatrix type="matrix" values="0 0 0 0 0 0 0 0 0 0 0 0 0 0 0 0 0 0 0.1 0"/>
<feBlend mode="normal" in2="BackgroundImageFix" result="effect1_dropShadow_5081_327"/>
<feBlend mode="normal" in="SourceGraphic" in2="effect1_dropShadow_5081_327" result="shape"/>
</filter>
</defs>
</svg>
