<svg width="80" height="80" viewBox="0 0 80 80" fill="none" xmlns="http://www.w3.org/2000/svg">
<g filter="url(#filter0_d_5082_372)">
<rect x="4" y="2" width="72" height="72" rx="36" fill="#8E6FB2"/>
<path d="M39.9863 46.2125C35.4723 46.2125 31.7879 42.5281 31.7879 38.0141C31.7879 34.0203 34.6004 30.6734 38.4535 29.9563V28.5078C33.7988 29.2391 30.3535 33.2328 30.3535 38.0141C30.3535 43.3156 34.6707 47.6469 39.9863 47.6469C44.7676 47.6469 48.7613 44.2016 49.4926 39.5469H48.0441C47.3129 43.3859 43.9801 46.2125 39.9863 46.2125Z" fill="white"/>
<path d="M40.9711 28.4375L40.1836 28.3531V37.8172H49.6477L49.5633 37.0297C49.1133 32.5156 45.4852 28.8875 40.9711 28.4375ZM41.6039 36.3969V29.9844C44.8242 30.6312 47.3695 33.1766 48.0164 36.3969H41.6039Z" fill="white"/>
<path d="M55.427 48.8141L55.4129 47.6047C55.4129 42.9922 55.427 29.7875 55.4129 24.0219C55.4129 21.9406 53.7957 20.3656 51.6863 20.3656H43.0238H39.8035C36.1051 20.3656 32.2801 20.3656 28.5254 20.3656C27.5129 20.3656 26.5004 20.8016 25.741 21.575C24.9957 22.3203 24.5879 23.3047 24.5879 24.3313C24.616 32.5016 24.616 37.7328 24.602 44.3563V51.5141C24.602 52.625 25.0238 53.6656 25.7973 54.4391C26.5707 55.2125 27.6113 55.6344 28.7223 55.6344H40.6191C44.2895 55.6344 48.0441 55.6344 51.7566 55.6203C52.1645 55.6203 52.5723 55.55 52.9238 55.4375C54.4004 54.9313 55.4129 53.5109 55.441 51.9219C55.427 50.8813 55.427 49.8266 55.427 48.8141ZM53.9785 51.8938C53.9645 52.8781 53.3457 53.7641 52.4316 54.0734C52.2348 54.1438 51.9957 54.1859 51.7285 54.1859C48.0301 54.2 44.2754 54.2 40.591 54.2H28.6941C27.9629 54.2 27.2738 53.9328 26.7816 53.4266C26.2895 52.9344 26.0082 52.2594 26.0082 51.5281V44.3703C26.0082 37.7469 26.0223 32.5156 25.9941 24.3453C25.9941 23.6984 26.2473 23.0797 26.7254 22.6016C27.2176 22.1094 27.8645 21.8281 28.4973 21.8281C32.252 21.8281 36.077 21.8281 39.7754 21.8281H42.9957H51.6582C53.0082 21.8281 53.9504 22.7422 53.9504 24.05C53.9645 29.8016 53.9504 43.0203 53.9504 47.6328L53.9645 48.8422C53.9926 49.8266 53.9926 50.8672 53.9785 51.8938Z" fill="white"/>
</g>
<defs>
<filter id="filter0_d_5082_372" x="0" y="0" width="80" height="80" filterUnits="userSpaceOnUse" color-interpolation-filters="sRGB">
<feFlood flood-opacity="0" result="BackgroundImageFix"/>
<feColorMatrix in="SourceAlpha" type="matrix" values="0 0 0 0 0 0 0 0 0 0 0 0 0 0 0 0 0 0 127 0" result="hardAlpha"/>
<feOffset dy="2"/>
<feGaussianBlur stdDeviation="2"/>
<feColorMatrix type="matrix" values="0 0 0 0 0 0 0 0 0 0 0 0 0 0 0 0 0 0 0.1 0"/>
<feBlend mode="normal" in2="BackgroundImageFix" result="effect1_dropShadow_5082_372"/>
<feBlend mode="normal" in="SourceGraphic" in2="effect1_dropShadow_5082_372" result="shape"/>
</filter>
</defs>
</svg>
